# xmcd CD database file
#
# Track frame offsets:
#	150
#	41210
#	53957
#	77689
#	95164
#	97818
#	164219
#	181486
#
# Disc length: 2718 seconds
#
# Revision: 0
# Processed by: cddbd v1.5.1PL2 Copyright (c) Steve Scherf et al.
# Submitted via: CDex 1.51
#
DISCID=6b0a9c08
DTITLE=Chas Jankel - Chas Jankel
DYEAR=1979
DGENRE=Jazz
TTITLE0=Ai No Corrida
TTITLE1=Peace, At Last
TTITLE2=Just A Thought
TTITLE3=Lenta Latina
TTITLE4=Fuse
TTITLE5=Am I Honest With Myself Really?
TTITLE6=Reverie
TTITLE7=Litta Eva
EXTD=YEAR: 1979
EXTT0=
EXTT1=
EXTT2=
EXTT3=
EXTT4=
EXTT5=
EXTT6=
EXTT7=
PLAYORDER=
